<mxfile host="app.diagrams.net" agent="Mozilla/5.0 (Windows NT 10.0; Win64; x64) AppleWebKit/537.36 (KHTML, like Gecko) Chrome/128.0.0.0 Safari/537.36" version="24.7.7">
  <diagram name="Page-1" id="f19V1He11p_xqul3AJ4d">
    <mxGraphModel dx="1050" dy="2781" grid="1" gridSize="10" guides="1" tooltips="1" connect="1" arrows="1" fold="1" page="1" pageScale="1" pageWidth="850" pageHeight="1100" math="0" shadow="0">
      <root>
        <mxCell id="0" />
        <mxCell id="1" parent="0" />
        <mxCell id="ittKy-vtTc_nyemvx8ML-3" value="" style="edgeStyle=orthogonalEdgeStyle;rounded=0;orthogonalLoop=1;jettySize=auto;html=1;" edge="1" parent="1" source="ittKy-vtTc_nyemvx8ML-1" target="ittKy-vtTc_nyemvx8ML-2">
          <mxGeometry relative="1" as="geometry" />
        </mxCell>
        <mxCell id="ittKy-vtTc_nyemvx8ML-1" value="&lt;font style=&quot;font-size: 16px;&quot;&gt;Mulai&lt;/font&gt;" style="strokeWidth=2;html=1;shape=mxgraph.flowchart.terminator;whiteSpace=wrap;" vertex="1" parent="1">
          <mxGeometry x="365" y="-2160" width="120" height="50" as="geometry" />
        </mxCell>
        <mxCell id="ittKy-vtTc_nyemvx8ML-2" value="&lt;font style=&quot;font-size: 14px;&quot;&gt;Input nilai dalam&amp;nbsp;&lt;/font&gt;&lt;div style=&quot;font-size: 14px;&quot;&gt;&lt;font style=&quot;font-size: 14px;&quot;&gt;rupiah (idr)&lt;/font&gt;&lt;/div&gt;" style="shape=parallelogram;html=1;strokeWidth=2;perimeter=parallelogramPerimeter;whiteSpace=wrap;rounded=1;arcSize=12;size=0.23;" vertex="1" parent="1">
          <mxGeometry x="335" y="-2070" width="180" height="80" as="geometry" />
        </mxCell>
        <mxCell id="ittKy-vtTc_nyemvx8ML-6" value="" style="edgeStyle=orthogonalEdgeStyle;rounded=0;orthogonalLoop=1;jettySize=auto;html=1;" edge="1" parent="1" source="ittKy-vtTc_nyemvx8ML-4" target="ittKy-vtTc_nyemvx8ML-5">
          <mxGeometry relative="1" as="geometry" />
        </mxCell>
        <mxCell id="ittKy-vtTc_nyemvx8ML-4" value="&lt;font style=&quot;font-size: 14px;&quot;&gt;Input nilai dalam&amp;nbsp;&lt;/font&gt;&lt;div style=&quot;font-size: 14px;&quot;&gt;&lt;font style=&quot;font-size: 14px;&quot;&gt;rupiah (idr)&lt;/font&gt;&lt;/div&gt;" style="shape=parallelogram;html=1;strokeWidth=2;perimeter=parallelogramPerimeter;whiteSpace=wrap;rounded=1;arcSize=12;size=0.23;" vertex="1" parent="1">
          <mxGeometry x="335" y="-2070" width="180" height="80" as="geometry" />
        </mxCell>
        <mxCell id="ittKy-vtTc_nyemvx8ML-8" value="" style="edgeStyle=orthogonalEdgeStyle;rounded=0;orthogonalLoop=1;jettySize=auto;html=1;" edge="1" parent="1" source="ittKy-vtTc_nyemvx8ML-5" target="ittKy-vtTc_nyemvx8ML-7">
          <mxGeometry relative="1" as="geometry" />
        </mxCell>
        <mxCell id="ittKy-vtTc_nyemvx8ML-5" value="&lt;span style=&quot;font-size: 14px;&quot;&gt;Input kode konversi&lt;/span&gt;&lt;div&gt;&lt;span style=&quot;font-size: 14px;&quot;&gt;(ex: usd, yen, eur)&lt;/span&gt;&lt;/div&gt;" style="shape=parallelogram;html=1;strokeWidth=2;perimeter=parallelogramPerimeter;whiteSpace=wrap;rounded=1;arcSize=12;size=0.23;" vertex="1" parent="1">
          <mxGeometry x="335" y="-1950" width="180" height="80" as="geometry" />
        </mxCell>
        <mxCell id="ittKy-vtTc_nyemvx8ML-10" value="" style="edgeStyle=orthogonalEdgeStyle;rounded=0;orthogonalLoop=1;jettySize=auto;html=1;" edge="1" parent="1" source="ittKy-vtTc_nyemvx8ML-7" target="ittKy-vtTc_nyemvx8ML-9">
          <mxGeometry relative="1" as="geometry" />
        </mxCell>
        <mxCell id="ittKy-vtTc_nyemvx8ML-7" value="&lt;font style=&quot;font-size: 14px;&quot;&gt;Hitung konversi mata uang sesuai kode konversi yang dipilih&lt;/font&gt;" style="rounded=1;whiteSpace=wrap;html=1;absoluteArcSize=1;arcSize=14;strokeWidth=2;" vertex="1" parent="1">
          <mxGeometry x="350" y="-1830" width="150" height="80" as="geometry" />
        </mxCell>
        <mxCell id="ittKy-vtTc_nyemvx8ML-12" value="" style="edgeStyle=orthogonalEdgeStyle;rounded=0;orthogonalLoop=1;jettySize=auto;html=1;" edge="1" parent="1" source="ittKy-vtTc_nyemvx8ML-9" target="ittKy-vtTc_nyemvx8ML-11">
          <mxGeometry relative="1" as="geometry" />
        </mxCell>
        <mxCell id="ittKy-vtTc_nyemvx8ML-9" value="&lt;span style=&quot;font-size: 14px;&quot;&gt;Tampilkan nilai&lt;/span&gt;&lt;div&gt;&lt;span style=&quot;font-size: 14px;&quot;&gt;hasil konversi&lt;/span&gt;&lt;/div&gt;" style="shape=parallelogram;html=1;strokeWidth=2;perimeter=parallelogramPerimeter;whiteSpace=wrap;rounded=1;arcSize=12;size=0.23;" vertex="1" parent="1">
          <mxGeometry x="335" y="-1710" width="180" height="80" as="geometry" />
        </mxCell>
        <mxCell id="ittKy-vtTc_nyemvx8ML-11" value="&lt;font style=&quot;font-size: 16px;&quot;&gt;Selesai&lt;/font&gt;" style="strokeWidth=2;html=1;shape=mxgraph.flowchart.terminator;whiteSpace=wrap;" vertex="1" parent="1">
          <mxGeometry x="365" y="-1590" width="120" height="50" as="geometry" />
        </mxCell>
      </root>
    </mxGraphModel>
  </diagram>
</mxfile>
